<?xml version="1.0" encoding="UTF-8"?>
<!DOCTYPE svg PUBLIC "-//W3C//DTD SVG 1.1//EN" "http://www.w3.org/Graphics/SVG/1.1/DTD/svg11.dtd">
<!-- Creator: CorelDRAW X5 -->
<svg xmlns="http://www.w3.org/2000/svg" xml:space="preserve" width="215.9mm" height="279.4mm" style="shape-rendering:geometricPrecision; text-rendering:geometricPrecision; image-rendering:optimizeQuality; fill-rule:evenodd; clip-rule:evenodd"
viewBox="0 0 215.9 279.4"
 xmlns:xlink="http://www.w3.org/1999/xlink">
 <defs>
  <style type="text/css">
   <![CDATA[
    .fil1 {fill:#363435}
    .fil0 {fill:#73BF4F}
    .fil2 {fill:#373435;fill-rule:nonzero}
   ]]>
  </style>
 </defs>
 <g id="Capa_x0020_1">
  <metadata id="CorelCorpID_0Corel-Layer"/>
  <path class="fil0" d="M15.1244 85.3951c0,8.8461 5.3147,18.4131 11.1646,23.9229 3.555,3.3485 14.2534,15.7351 16.6082,18.6768 5.088,6.3565 10.1422,12.8842 14.7076,20.3734 4.4472,7.2952 8.9235,15.0944 9.6741,25.6135l38.0206 0.0441c-0.0921,-7.87 -0.3146,-16.6914 -0.2744,-24.4463 0.0093,-5.8368 0.1885,-13.5942 -0.5907,-19.144 -1.2277,-8.7438 -3.511,-11.0675 -7.9284,-16.5703 -2.3647,-2.9458 -14.3495,-14.644 -17.2945,-17.5928 -5.6376,-5.6442 -14.2961,-14.5613 -19.8136,-19.6607 -1.8546,-1.714 -2.8897,-2.9231 -5.3147,-4.4515 -1.9487,-1.2281 -5.0787,-2.4548 -7.6213,-1.0935 -5.0888,2.7242 -2.8723,9.8468 0.2448,13.6476 5.1337,6.2598 10.2333,13.0013 15.3202,19.1705 0.7218,0.8752 1.5842,1.8499 2.2156,2.7671 2.1367,3.1035 -0.6033,5.333 -2.8705,3.0706 -0.8276,-0.8259 -7.597,-8.9679 -9.1072,-10.8302l-13.5631 -16.1362c-3.4403,-4.7269 -0.3676,-11.1787 1.2565,-15.7932 1.7266,-4.9061 9.8313,-26.1962 9.8313,-29.8058 0,-2.4169 -1.9783,-3.6655 -4.0115,-4.1398 0.3453,-3.2499 1.3947,-5.084 -0.9483,-7.4187 -1.0883,-1.0842 -4.1899,-2.839 -6.1765,-3.0708 -0.8879,1.1824 -19.4783,48.7795 -21.5069,53.9126 -1.0991,2.7809 -2.0219,5.5134 -2.0219,8.9547z"/>
  <path class="fil0" d="M169.634 33.0075c-6.1705,1.6766 -3.8462,6.4481 -2.0332,11.7491l7.7023 21.8157c1.462,4.2138 4.7375,10.9478 1.8244,15.553 -0.5211,0.8241 -12.0314,14.4377 -13.4001,16.1012 -0.7398,0.899 -1.4734,1.791 -2.1892,2.5958 -0.835,0.9386 -1.4652,1.8072 -2.2638,2.7171 -0.7928,0.9031 -1.3541,1.6514 -2.1813,2.6024 -1.615,1.8565 -3.4304,4.9124 -5.3043,4.4319 -1.2828,-0.3289 -1.8803,-1.574 -1.1321,-3.0902 0.6292,-1.2752 15.3225,-19.2062 17.3654,-21.9054 1.5104,-1.9954 2.6097,-3.1587 3.5156,-6.2502 0.8485,-2.8957 0.4805,-5.6364 -1.4017,-7.3845 -4.4724,-4.1546 -10.54,1.2896 -13.1006,3.6423 -1.8128,1.6656 -14.3181,13.9537 -17.2312,17.0574 -3.7519,3.997 -8.4393,8.4116 -12.2712,12.2485 -4.7781,4.7845 -10.2633,10.0415 -13.6632,15.841 -4.0725,6.9468 -3.3789,18.665 -3.4336,26.6543l-0.3433 26.6039 1.1293 0.0445 36.9393 -0.0472c0.6052,-11.1474 6.7233,-21.3447 12.4595,-30.034 3.7045,-5.6115 9.3058,-12.9654 13.6319,-18.0656 0.624,-0.7354 1.0941,-1.2325 1.6514,-1.9327l3.2994 -3.8795c1.2375,-1.2782 2.0783,-2.4051 3.3247,-3.6531l3.4118 -3.764c2.349,-2.6499 4.6636,-4.484 6.8844,-7.4707 3.6151,-4.8622 7.8845,-12.5586 7.4339,-20.7849 -0.2254,-4.1143 -1.8006,-7.5289 -3.1277,-10.9436l-12.1004 -30.5737c-0.7383,-1.8056 -7.5736,-19.307 -8.2169,-20.3413 -1.9298,0.1135 -5.363,2.0986 -6.3181,3.1118 -2.3006,2.4401 -1.1915,4.1518 -0.8614,7.3507z"/>
  <path class="fil1" d="M89.5156 40.5692c2.7325,1.7138 4.5779,3.4131 6.4018,5.9089 1.6714,2.2869 3.1671,4.991 4.3451,8.0141 2.5118,6.4458 3.7318,13.5768 3.5943,21.335 -0.2036,11.4917 0.3405,24.7742 0.3353,36.6769 -0.0016,3.4734 -0.1046,2.5536 1.3224,4.9082 0.822,1.3566 1.418,2.7058 2.1483,4.2223 0.4297,-0.4936 1.13,-2.2279 1.5506,-2.9676 0.8214,-1.4446 1.8225,-3.0714 2.8496,-4.3283 0.5382,-0.6588 0.614,-0.7607 1.0475,-1.3475 3.2049,-4.3403 7.7503,-8.4115 11.5372,-12.1782 1.0712,-1.0651 1.5415,-0.8499 1.4721,-3.0587l-0.3974 -13.9537c-0.2003,-6.0962 0.0714,-12.4976 -0.605,-18.4755 -1.2372,-10.9339 -5.1728,-21.1558 -10.8119,-27.0635 -5.4187,-5.677 -12.6894,-7.6998 -20.0555,-2.5265 -1.1912,0.8367 -4.141,3.4659 -4.7344,4.8341z"/>
  <path class="fil1" d="M99.3719 109.24c-0.1899,-8.2776 -0.2549,-16.7819 -0.2508,-25.0403 0.0042,-8.1672 0.2562,-15.8665 -1.7446,-23.4213 -7.0165,-26.4927 -29.5248,-21.925 -32.6264,7.8491 -0.7476,7.1766 -0.5683,5.7569 2.9503,9.2514l18.8952 18.7838c1.8828,1.8694 4.6004,4.6404 6.2904,6.2683 1.1056,1.0645 2.0402,1.9838 3.1207,3.0595 0.9197,0.9157 2.1599,2.5124 3.3652,3.2495z"/>
  <path class="fil1" d="M121.674 39.9479c3.9333,5.7571 6.8289,15.1437 8.011,23.6222 1.0552,7.5676 0.6961,22.293 1.0708,30.9084l4.8489 -5.0376c1.55,-1.6654 2.7796,-3.0281 4.8991,-5.0673l10.1498 -9.7302c0.4913,-12.575 -4.2084,-31.6846 -15.716,-36.8886 -2.11,-0.9543 -4.9757,-1.3358 -7.5374,-0.7775 -1.8308,0.3993 -4.9947,1.8665 -5.7262,2.9706z"/>
  <polygon class="fil0" points="4.4966,225.081 211.661,225.05 211.649,221.582 4.4736,221.666 "/>
  <path class="fil1" d="M100.787 4.3473c-6.3538,1.0032 -11.8767,7.1068 -10.5777,14.7767 1.0581,6.248 7.012,11.663 14.6475,10.4771 6.2792,-0.9753 11.7986,-7.0342 10.6053,-14.5836 -1.0134,-6.4105 -6.9635,-11.888 -14.6751,-10.6702z"/>
  <path class="fil1" d="M128.948 10.7505c-6.2196,0.6129 -11.1253,5.7922 -10.5751,12.6619 0.4853,6.0572 6.0245,11.1983 12.7816,10.5166 5.9325,-0.5986 11.0407,-5.8856 10.4014,-12.7254 -0.5615,-6.0055 -5.9245,-11.1119 -12.6079,-10.4531z"/>
  <path class="fil1" d="M80.2435 21.683c-5.0006,0.8245 -9.0089,5.4541 -8.0595,11.2695 0.782,4.7903 5.4363,8.9258 11.2974,7.9253 4.8071,-0.8206 8.8471,-5.3715 7.9039,-11.2175 -0.766,-4.7481 -5.3499,-8.932 -11.1418,-7.9773z"/>
  <path class="fil2" d="M10.976 198.913l3.1224 0c1.1123,0 2.0023,-0.2914 2.6774,-0.8744 0.675,-0.583 1.0126,-1.3504 1.0126,-2.2939 0,-0.9896 -0.3376,-1.7797 -1.0202,-2.3629 -0.6829,-0.583 -1.6034,-0.8744 -2.7541,-0.8744l-3.0381 0 0 6.4056zm0 13.5786l3.7362 0c1.6415,0 2.8997,-0.3144 3.759,-0.9436 0.8593,-0.6289 1.2888,-1.5419 1.2888,-2.7387 0,-1.2505 -0.4219,-2.1711 -1.2658,-2.7694 -0.8516,-0.5984 -2.1558,-0.8976 -3.9201,-0.8976l-3.5981 0 0 7.3493zm-2.4088 6.4058c-1.9331,0 -3.2605,-0.3299 -3.9737,-0.9896 -0.7212,-0.6598 -1.0817,-1.895 -1.0817,-3.7053l0 -22.7998c0,-1.987 0.3835,-3.3603 1.143,-4.1121 0.7671,-0.7441 2.1019,-1.12 4.0046,-1.12l6.1371 0c3.2375,0 5.746,0.7135 7.5258,2.1481 1.7875,1.4269 2.6773,3.4292 2.6773,5.9913 0,1.6035 -0.3297,2.9229 -0.9896,3.974 -0.6598,1.051 -1.68,1.8718 -3.061,2.4701 2.1481,0.5294 3.7898,1.5038 4.9252,2.9382 1.143,1.427 1.7107,3.2145 1.7107,5.3626 0,3.0838 -1.0202,5.5003 -3.0685,7.2342 -2.0406,1.7413 -4.9022,2.6083 -8.5692,2.6083l-7.38 0zm29.4547 -4.8713c0,1.7796 -0.3067,3.1068 -0.9205,3.9737 -0.6137,0.8669 -1.5496,1.3041 -2.8078,1.3041 -1.2658,0 -2.2017,-0.4372 -2.8154,-1.3041 -0.6138,-0.8669 -0.9205,-2.1941 -0.9205,-3.9737l0 -22.9763c0,-1.7799 0.3067,-3.107 0.9205,-3.9893 0.6137,-0.8746 1.5496,-1.3118 2.8154,-1.3118 1.2582,0 2.1941,0.4372 2.8078,1.3118 0.6138,0.8823 0.9205,2.2094 0.9205,3.9893l0 22.9763zm18.0089 -27.8555c1.7722,0 3.0993,0.2916 3.9816,0.8669 0.8823,0.5754 1.3271,1.4576 1.3271,2.639 0,1.1509 -0.4372,2.0176 -1.3118,2.5853 -0.8822,0.5676 -2.2094,0.8516 -3.9969,0.8516l-6.0605 0 0 5.8457 5.2321 0c1.7796,0 3.1146,0.2838 3.989,0.8515 0.8746,0.5676 1.3118,1.4422 1.3118,2.6085 0,1.166 -0.4372,2.0329 -1.3118,2.5929 -0.8744,0.56 -2.2094,0.8438 -3.989,0.8438l-5.2321 0 0 6.145 6.2906 0c1.7952,0 3.13,0.2837 3.9969,0.8514 0.867,0.5677 1.3042,1.4346 1.3042,2.5853 0,1.1662 -0.4372,2.0406 -1.3042,2.6083 -0.8669,0.5677 -2.2017,0.8516 -3.9969,0.8516l-8.6995 0c-1.9331,0 -3.2604,-0.3299 -3.9737,-0.9896 -0.7211,-0.6598 -1.0817,-1.895 -1.0817,-3.7053l0 -22.7998c0,-1.987 0.3835,-3.3603 1.143,-4.1121 0.7671,-0.7441 2.1019,-1.12 4.0046,-1.12l8.3772 0zm15.6843 27.8555c0,1.7796 -0.3067,3.1068 -0.9206,3.9737 -0.6136,0.8669 -1.5496,1.3041 -2.8077,1.3041 -1.2658,0 -2.2018,-0.4372 -2.8154,-1.3041 -0.6139,-0.8669 -0.9206,-2.1941 -0.9206,-3.9737l0 -23.2449c0,-1.6801 0.2837,-2.9306 0.8514,-3.7513 0.5754,-0.821 1.4423,-1.2352 2.6085,-1.2352 0.7518,0 1.4268,0.1841 2.0406,0.5523 0.606,0.3606 1.2427,0.9821 1.9178,1.8489l13.7475 18.1816 0 -15.3277c0,-1.7799 0.3067,-3.107 0.9205,-3.9893 0.6137,-0.8746 1.5496,-1.3118 2.8154,-1.3118 1.2582,0 2.1941,0.4372 2.8078,1.3118 0.6138,0.8823 0.9206,2.2094 0.9206,3.9893l0 23.8047c0,1.5881 -0.2761,2.7617 -0.8285,3.5135 -0.56,0.7595 -1.4193,1.1354 -2.5853,1.1354 -0.7826,0 -1.5114,-0.2148 -2.1864,-0.652 -0.6751,-0.4297 -1.3656,-1.12 -2.0868,-2.0636l-13.4788 -17.821 0 15.0593zm38.9981 -27.8555c1.7722,0 3.0994,0.2916 3.9816,0.8669 0.8823,0.5754 1.3272,1.4576 1.3272,2.639 0,1.1509 -0.4372,2.0176 -1.3118,2.5853 -0.8823,0.5676 -2.2094,0.8516 -3.997,0.8516l-6.0605 0 0 5.8457 5.2321 0c1.7797,0 3.1147,0.2838 3.9891,0.8515 0.8746,0.5676 1.3118,1.4422 1.3118,2.6085 0,1.166 -0.4372,2.0329 -1.3118,2.5929 -0.8744,0.56 -2.2094,0.8438 -3.9891,0.8438l-5.2321 0 0 6.145 6.2906 0c1.7952,0 3.13,0.2837 3.997,0.8514 0.8669,0.5677 1.3041,1.4346 1.3041,2.5853 0,1.1662 -0.4372,2.0406 -1.3041,2.6083 -0.867,0.5677 -2.2018,0.8516 -3.997,0.8516l-8.6994 0c-1.9331,0 -3.2605,-0.3299 -3.9738,-0.9896 -0.7211,-0.6598 -1.0817,-1.895 -1.0817,-3.7053l0 -22.7998c0,-1.987 0.3836,-3.3603 1.1431,-4.1121 0.7671,-0.7441 2.1019,-1.12 4.0045,-1.12l8.3772 0zm29.7464 22.5927c0,3.2758 -1.1662,5.9301 -3.4982,7.963 -2.3246,2.033 -5.3933,3.0457 -9.1982,3.0457 -2.9229,0 -5.4162,-0.5217 -7.4875,-1.5728 -2.0636,-1.0508 -3.0993,-2.2783 -3.0993,-3.69 0,-0.9972 0.3299,-1.8105 0.9974,-2.4241 0.6673,-0.6137 1.5649,-0.9206 2.6849,-0.9206 0.56,0 1.7186,0.2763 3.4906,0.8286 1.7645,0.56 3.2528,0.8361 4.4724,0.8361 1.0434,0 1.9257,-0.3223 2.6238,-0.9666 0.7059,-0.6445 1.0586,-1.4499 1.0586,-2.4088 0,-1.0281 -0.3606,-1.8642 -1.0816,-2.4933 -0.7134,-0.629 -2.2555,-1.3042 -4.6261,-2.0177 -3.429,-1.0202 -5.8302,-2.2324 -7.1882,-3.6363 -1.3654,-1.3961 -2.0483,-3.2833 -2.0483,-5.6461 0,-3.0457 1.0971,-5.5312 3.2912,-7.4645 2.194,-1.9331 5.0556,-2.8997 8.5768,-2.8997 2.593,0 4.7255,0.4602 6.4058,1.3808 1.68,0.9206 2.5161,2.0712 2.5161,3.4522 0,0.9896 -0.2991,1.7643 -0.8899,2.3244 -0.5907,0.56 -1.4114,0.8439 -2.4625,0.8439 -0.583,0 -1.5342,-0.1918 -2.8539,-0.5753 -1.3195,-0.3759 -2.309,-0.5677 -2.9842,-0.5677 -1.1124,0 -1.9946,0.2607 -2.6543,0.7748 -0.6598,0.514 -0.9897,1.1966 -0.9897,2.0329 0,1.3348 1.4499,2.4548 4.3575,3.3678 0.6751,0.2147 1.2045,0.3759 1.5727,0.4987 3.13,1.0434 5.416,2.3705 6.8583,3.9662 1.4346,1.5956 2.1558,3.5826 2.1558,5.9684zm6.563 -15.6499l-2.7388 0c-1.8029,0 -3.1377,-0.284 -4.0046,-0.8516 -0.8669,-0.5677 -1.3041,-1.4344 -1.3041,-2.5853 0,-1.1814 0.4372,-2.0636 1.3118,-2.639 0.8822,-0.5753 2.2094,-0.8669 3.9969,-0.8669l12.9648 0c1.7722,0 3.0993,0.2916 3.9816,0.8669 0.8823,0.5754 1.3271,1.4576 1.3271,2.639 0,1.1509 -0.4372,2.0176 -1.3118,2.5853 -0.8823,0.5676 -2.2094,0.8516 -3.9969,0.8516l-2.7618 0 0 20.905c0,1.7873 -0.3067,3.1145 -0.9205,3.9814 -0.6137,0.8669 -1.5496,1.3041 -2.8078,1.3041 -1.2658,0 -2.2017,-0.4372 -2.8154,-1.3041 -0.6138,-0.8669 -0.9205,-2.1941 -0.9205,-3.9814l0 -20.905zm18.6608 19.6238l-1.1201 3.3065c-0.3605,1.0892 -0.8439,1.9254 -1.4499,2.5008 -0.606,0.5753 -1.3195,0.8669 -2.1251,0.8669 -1.0355,0 -1.8872,-0.3376 -2.5547,-1.0204 -0.6672,-0.6826 -0.9972,-1.5419 -0.9972,-2.5776 0,-0.4142 0.0307,-0.8054 0.092,-1.166 0.0615,-0.3606 0.1458,-0.6905 0.2686,-0.9896l8.5154 -23.122c0.6138,-1.6648 1.3886,-2.8846 2.3092,-3.6671 0.9206,-0.7747 2.0559,-1.166 3.406,-1.166 1.2735,0 2.3782,0.3683 3.3141,1.1124 0.9359,0.7441 1.6571,1.8182 2.1635,3.2219l8.3005 23.5057c0.1612,0.4987 0.284,0.9436 0.3683,1.3271 0.0845,0.3912 0.1228,0.7365 0.1228,1.0357 0,1.0356 -0.3453,1.8795 -1.0358,2.5317 -0.6904,0.652 -1.5725,0.9742 -2.6466,0.9742 -0.9667,0 -1.7645,-0.2992 -2.4011,-0.8976 -0.6369,-0.5983 -1.1354,-1.5112 -1.5115,-2.7464l-0.9206 -3.0302 -12.0978 0zm2.1172 -6.8738l7.8174 0 -3.7745 -12.1364 -4.0429 12.1364zm27.276 0.1075l0 8.0475c0,1.7873 -0.3067,3.1145 -0.9206,3.9814 -0.6136,0.8669 -1.5495,1.3041 -2.8077,1.3041 -1.2658,0 -2.2018,-0.4372 -2.8154,-1.3041 -0.6139,-0.8669 -0.9206,-2.1941 -0.9206,-3.9814l0 -22.608c0,-1.9947 0.3836,-3.368 1.143,-4.1121 0.7671,-0.7518 2.1019,-1.1277 4.0046,-1.1277l5.7996 0c3.8818,0 6.9275,0.9206 9.1445,2.7541 2.2171,1.8335 3.3294,4.3268 3.3294,7.4721 0,2.3399 -0.6904,4.2884 -2.0789,5.8535 -1.381,1.5648 -3.2988,2.5623 -5.7385,2.9765l5.8841 6.5437c0.752,0.8286 1.3044,1.5957 1.6726,2.3015 0.3682,0.7135 0.5524,1.3732 0.5524,1.9717 0,0.9895 -0.3376,1.818 -1.0128,2.4931 -0.6752,0.6752 -1.5189,1.0128 -2.5393,1.0128 -0.6596,0 -1.2888,-0.1997 -1.9025,-0.6062 -0.606,-0.4066 -1.3041,-1.0971 -2.1021,-2.0713l-8.6918 -10.9012zm0 -4.9865l3.4369 0c1.5189,0 2.6851,-0.3529 3.5059,-1.0587 0.8208,-0.6981 1.2352,-1.6954 1.2352,-2.9842 0,-1.2428 -0.4068,-2.2094 -1.2122,-2.8922 -0.8055,-0.6828 -1.9563,-1.0202 -3.4369,-1.0202l-3.5289 0 0 7.9553zm-176.964 28.6092c1.7645,0 3.0917,0.2916 3.9739,0.8669 0.8823,0.5753 1.3272,1.4576 1.3272,2.6389 0,1.1509 -0.4372,2.0177 -1.3118,2.5853 -0.8746,0.5677 -2.2094,0.8517 -3.9893,0.8517l-6.0682 0 0 5.8457 5.2398 0c1.7796,0 3.107,0.2837 3.989,0.8514 0.8746,0.5677 1.3121,1.4423 1.3121,2.6085 0,1.166 -0.4375,2.033 -1.3121,2.593 -0.882,0.56 -2.2094,0.8437 -3.989,0.8437l-5.2398 0 0 8.1627c0,1.7873 -0.3067,3.1144 -0.9206,3.9814 -0.6136,0.8669 -1.5495,1.3041 -2.8077,1.3041 -1.2658,0 -2.2017,-0.4372 -2.8154,-1.3041 -0.6138,-0.867 -0.9206,-2.1941 -0.9206,-3.9814l0 -22.6157c0,-1.987 0.3836,-3.3603 1.143,-4.1121 0.7672,-0.7441 2.102,-1.12 4.0046,-1.12l8.3849 0zm14.6432 26.5666l-1.12 3.3064c-0.3606,1.0892 -0.844,1.9255 -1.45,2.5008 -0.606,0.5754 -1.3195,0.867 -2.1251,0.867 -1.0355,0 -1.8871,-0.3376 -2.5546,-1.0204 -0.6673,-0.6826 -0.9973,-1.5419 -0.9973,-2.5777 0,-0.4142 0.0307,-0.8054 0.092,-1.166 0.0615,-0.3605 0.1458,-0.6904 0.2686,-0.9895l8.5154 -23.1221c0.6138,-1.6647 1.3886,-2.8845 2.3092,-3.667 0.9206,-0.7748 2.0559,-1.166 3.406,-1.166 1.2735,0 2.3782,0.3682 3.3141,1.1124 0.936,0.7441 1.6571,1.8181 2.1635,3.2219l8.3005 23.5056c0.1612,0.4988 0.284,0.9436 0.3683,1.3272 0.0845,0.3912 0.1228,0.7364 0.1228,1.0357 0,1.0355 -0.3453,1.8795 -1.0357,2.5317 -0.6905,0.6519 -1.5726,0.9742 -2.6466,0.9742 -0.9668,0 -1.7646,-0.2993 -2.4012,-0.8976 -0.6369,-0.5983 -1.1354,-1.5113 -1.5115,-2.7464l-0.9206 -3.0302 -12.0978 0zm2.1172 -6.8738l7.8174 0 -3.7745 -12.1364 -4.0429 12.1364zm21.6088 7.3263l4.0046 -22.3164c0.3299,-1.8412 0.8822,-3.1606 1.6723,-3.9433 0.7825,-0.7901 1.9102,-1.1813 3.3831,-1.1813 1.3887,0 2.5163,0.3682 3.368,1.1047 0.859,0.7288 1.4729,1.8412 1.8411,3.3217l4.9712 19.5547 4.6489 -19.6006c0.3452,-1.45 0.9435,-2.547 1.8028,-3.2758 0.8514,-0.7365 1.9561,-1.1047 3.2988,-1.1047 1.5496,0 2.7311,0.4142 3.5519,1.2505 0.8284,0.8284 1.3963,2.2094 1.7106,4.1425l3.6441 22.5238c0.0536,0.3297 0.0998,0.6443 0.1304,0.9512 0.0307,0.3067 0.046,0.583 0.046,0.8208 0,1.1968 -0.3452,2.148 -1.0357,2.8539 -0.6903,0.7058 -1.6032,1.0585 -2.7386,1.0585 -1.051,0 -1.8797,-0.3606 -2.4933,-1.0815 -0.6137,-0.7135 -1.0128,-1.8105 -1.1969,-3.2758l-2.355 -19.5547c-1.8181,7.8172 -3.1606,13.3484 -4.0352,16.5858 -0.8746,3.2373 -1.5574,5.2396 -2.033,5.999 -0.2992,0.4834 -0.6981,0.821 -1.1815,1.0205 -0.4908,0.2071 -1.1353,0.3067 -1.9408,0.3067 -1.2658,0 -2.2247,-0.2838 -2.8769,-0.8514 -0.6596,-0.5754 -1.166,-1.5421 -1.5112,-2.8999l-4.833 -20.1607 -2.5623 19.079c-0.238,1.6953 -0.6752,2.9228 -1.3042,3.69 -0.6292,0.7594 -1.4959,1.143 -2.6006,1.143 -1.097,0 -1.9793,-0.3527 -2.6468,-1.0585 -0.6673,-0.6982 -0.9972,-1.6571 -0.9972,-2.8539 0,-0.2838 0.023,-0.6137 0.0689,-0.9973 0.046,-0.3835 0.1075,-0.7979 0.1995,-1.2505zm51.5278 0.8363c0,1.7797 -0.3067,3.1068 -0.9206,3.9738 -0.6136,0.8669 -1.5495,1.3041 -2.8077,1.3041 -1.2658,0 -2.2017,-0.4372 -2.8154,-1.3041 -0.6139,-0.867 -0.9206,-2.1941 -0.9206,-3.9738l0 -22.9762c0,-1.7799 0.3067,-3.107 0.9206,-3.9893 0.6137,-0.8746 1.5496,-1.3118 2.8154,-1.3118 1.2582,0 2.1941,0.4372 2.8077,1.3118 0.6139,0.8823 0.9206,2.2094 0.9206,3.9893l0 22.9762zm8.2144 -22.9762c0,-1.7799 0.3067,-3.107 0.9206,-3.9893 0.6137,-0.8746 1.5496,-1.3118 2.8154,-1.3118 1.2582,0 2.1941,0.4372 2.8077,1.3118 0.6139,0.8823 0.9206,2.2094 0.9206,3.9893l0 20.9509 6.2906 0c1.7952,0 3.13,0.2838 3.997,0.8515 0.8669,0.5676 1.3041,1.4346 1.3041,2.5853 0,1.1662 -0.4372,2.0406 -1.3041,2.6082 -0.867,0.5677 -2.2018,0.8517 -3.997,0.8517l-8.6994 0c-1.9332,0 -3.2605,-0.33 -3.9738,-0.9896 -0.7211,-0.6598 -1.0817,-1.895 -1.0817,-3.7053l0 -23.1527zm31.0983 22.9762c0,1.7797 -0.3067,3.1068 -0.9205,3.9738 -0.6137,0.8669 -1.5496,1.3041 -2.8078,1.3041 -1.2658,0 -2.2017,-0.4372 -2.8154,-1.3041 -0.6138,-0.867 -0.9205,-2.1941 -0.9205,-3.9738l0 -22.9762c0,-1.7799 0.3067,-3.107 0.9205,-3.9893 0.6137,-0.8746 1.5496,-1.3118 2.8154,-1.3118 1.2582,0 2.1941,0.4372 2.8078,1.3118 0.6138,0.8823 0.9205,2.2094 0.9205,3.9893l0 22.9762zm13.5615 -1.2888l-1.12 3.3064c-0.3606,1.0892 -0.844,1.9255 -1.45,2.5008 -0.6059,0.5754 -1.3194,0.867 -2.1251,0.867 -1.0355,0 -1.8871,-0.3376 -2.5546,-1.0204 -0.6673,-0.6826 -0.9972,-1.5419 -0.9972,-2.5777 0,-0.4142 0.0306,-0.8054 0.0919,-1.166 0.0615,-0.3605 0.1458,-0.6904 0.2687,-0.9895l8.5153 -23.1221c0.6139,-1.6647 1.3886,-2.8845 2.3092,-3.667 0.9206,-0.7748 2.056,-1.166 3.4061,-1.166 1.2735,0 2.3782,0.3682 3.3141,1.1124 0.9359,0.7441 1.657,1.8181 2.1634,3.2219l8.3006 23.5056c0.1611,0.4988 0.2839,0.9436 0.3682,1.3272 0.0845,0.3912 0.1228,0.7364 0.1228,1.0357 0,1.0355 -0.3452,1.8795 -1.0357,2.5317 -0.6905,0.6519 -1.5726,0.9742 -2.6466,0.9742 -0.9668,0 -1.7645,-0.2993 -2.4012,-0.8976 -0.6368,-0.5983 -1.1353,-1.5113 -1.5114,-2.7464l-0.9206 -3.0302 -12.0979 0zm2.1173 -6.8738l7.8174 0 -3.7745 -12.1364 -4.0429 12.1364zm31.0063 0.1075l0 8.0475c0,1.7873 -0.3067,3.1144 -0.9206,3.9814 -0.6136,0.8669 -1.5495,1.3041 -2.8077,1.3041 -1.2658,0 -2.2017,-0.4372 -2.8154,-1.3041 -0.6138,-0.867 -0.9206,-2.1941 -0.9206,-3.9814l0 -22.6081c0,-1.9946 0.3836,-3.3679 1.1431,-4.1121 0.7671,-0.7517 2.1019,-1.1276 4.0045,-1.1276l5.7996 0c3.8818,0 6.9275,0.9205 9.1446,2.754 2.217,1.8335 3.3294,4.3269 3.3294,7.4722 0,2.3399 -0.6905,4.2883 -2.0789,5.8534 -1.381,1.5649 -3.2988,2.5623 -5.7385,2.9765l5.884 6.5437c0.752,0.8287 1.3044,1.5958 1.6726,2.3016 0.3683,0.7135 0.5524,1.3731 0.5524,1.9716 0,0.9896 -0.3376,1.818 -1.0128,2.4932 -0.6751,0.6751 -1.5189,1.0127 -2.5393,1.0127 -0.6596,0 -1.2888,-0.1996 -1.9025,-0.6062 -0.6059,-0.4065 -1.3041,-1.097 -2.1021,-2.0712l-8.6918 -10.9012zm0 -4.9865l3.4369 0c1.519,0 2.6852,-0.3529 3.5059,-1.0587 0.8208,-0.6982 1.2352,-1.6954 1.2352,-2.9842 0,-1.2429 -0.4068,-2.2094 -1.2122,-2.8922 -0.8054,-0.6829 -1.9563,-1.0202 -3.4369,-1.0202l-3.5289 0 0 7.9553z"/>
 </g>
</svg>
